#!OML:ASF E:\Style4\Style4.ASF
:FULLY-SPECIFIED
:DEGREES
1623
root 1.2369 16.7474 -1.0843 0.11587 -16.275 3.55428
lowerback 16.7386 1.33935 -3.42117
upperback 12.2863 1.18596 0.0422375
thorax 3.71534 0.317842 1.80726
lowerneck 10.2243 -2.81391 -5.49897
upperneck 1.6277 -4.33735 0.196115
head -1.08827 -2.1799 1.16162
rclavicle -5.36719e-015 1.19271e-015
rhumerus 20.7283 14.3827 -82.7064
rradius 131.402
rwrist 21.6154
rhand 34.1439 -11.0876
rfingers 7.12502
rthumb 57.3889 -27.3449
lclavicle -5.36719e-015 1.19271e-015
lhumerus 27.554 -21.6896 81.9225
lradius 130.487
lwrist -15.4595
lhand 25.9099 44.5696
lfingers 7.12502
lthumb 49.9952 65.7949
rfemur -31.8362 0.122667 11.4344
rtibia 54.346
rfoot -21.5928 -9.99158
rtoes -19.1829
lfemur -26.5261 13.9363 -27.2224
ltibia 53.6563
lfoot -30.9639 14.2289
ltoes -6.56761
1624
root 1.24286 16.749 -1.08358 0.0985478 -16.4629 3.69682
lowerback 16.7285 1.43805 -3.44481
upperback 12.309 1.31152 0.00355912
thorax 3.73919 0.379984 1.76321
lowerneck 10.2915 -2.88697 -5.52203
upperneck 1.60276 -4.43735 0.359163
head -1.10147 -2.2324 1.22322
rclavicle -2.0276e-014 1.19271e-015
rhumerus 20.7506 14.2864 -82.7473
rradius 131.4
rwrist 21.5563
rhand 33.9108 -11.2793
rfingers 7.12502
rthumb 57.1844 -27.7106
lclavicle -2.0276e-014 1.19271e-015
lhumerus 27.5697 -21.8278 81.8652
lradius 130.397
lwrist -15.6087
lhand 25.799 44.3828
lfingers 7.12502
lthumb 49.8937 65.6611
rfemur -31.9223 0.352126 11.247
rtibia 54.3686
rfoot -21.5891 -9.95999
rtoes -19.1145
lfemur -26.5087 14.1231 -27.4052
ltibia 53.5677
lfoot -31.0268 14.3629
ltoes -7.13567
1625
root 1.2501 16.7507 -1.08472 0.0578778 -16.5823 3.8944
lowerback 16.7827 1.56245 -3.42214
upperback 12.3177 1.47414 -0.0466792
thorax 3.71328 0.465645 1.67482
lowerneck 10.3378 -2.97194 -5.52324
upperneck 1.60404 -4.54878 0.515989
head -1.10255 -2.29089 1.27856
rclavicle 1.25234e-014 -7.95139e-016
rhumerus 20.7515 14.0912 -82.6794
rradius 131.427
rwrist 21.3423
rhand 33.6451 -11.6661
rfingers 7.12502
rthumb 56.9508 -28.2931
lclavicle 1.25234e-014 -7.95139e-016
lhumerus 27.6637 -22.1082 81.7781
lradius 130.34
lwrist -15.5931
lhand 25.6794 44.2939
lfingers 7.12502
lthumb 49.7842 65.6293
rfemur -32.0045 0.471287 11.0068
rtibia 54.371
rfoot -21.5079 -9.93535
rtoes -19.2829
lfemur -26.4852 14.1987 -27.6392
ltibia 53.4707
lfoot -31.0779 14.3791
ltoes -7.1893
1626
root 1.2572 16.7514 -1.08751 0.110885 -16.7024 3.97995
lowerback 16.8086 1.69173 -3.26062
upperback 12.2837 1.66101 -0.0581459
thorax 3.65499 0.572026 1.54607
lowerneck 10.2341 -3.12068 -5.50158
upperneck 1.79337 -4.73283 0.523177
head -1.01762 -2.38582 1.27675
rclavicle -1.19271e-014 -3.57812e-015
rhumerus 20.7133 13.8251 -82.6011
rradius 131.412
rwrist 21.1609
rhand 33.3815 -11.9342
rfingers 7.12502
rthumb 56.7186 -28.7522
lclavicle -1.19271e-014 -3.57812e-015
lhumerus 27.7251 -22.3941 81.6477
lradius 130.422
lwrist -15.4133
lhand 25.6355 44.4734
lfingers 7.12502
lthumb 49.744 65.8296
rfemur -32.1512 0.627299 10.8958
rtibia 54.357
rfoot -21.3503 -10.0687
rtoes -19.8883
lfemur -26.5691 14.3089 -27.7722
ltibia 53.3958
lfoot -31.0643 14.3443
ltoes -6.95865
1627
root 1.26389 16.753 -1.08891 0.168353 -16.8088 4.01007
lowerback 16.8165 1.7249 -3.24837
upperback 12.2619 1.70436 -0.03913
thorax 3.62427 0.594363 1.55297
lowerneck 9.79853 -3.20196 -5.41364
upperneck 2.2759 -4.80054 0.336539
head -0.791373 -2.42503 1.18306
rclavicle -2.38542e-015 -7.95139e-016
rhumerus 20.739 13.9138 -82.6666
rradius 131.384
rwrist 21.0964
rhand 33.2371 -12.0005
rfingers 7.12502
rthumb 56.5913 -28.922
lclavicle -2.38542e-015 -7.95139e-016
lhumerus 27.679 -22.3359 81.493
lradius 130.506
lwrist -15.4297
lhand 25.638 44.5424
lfingers 7.12502
lthumb 49.7463 65.8973
rfemur -32.2641 0.76432 10.8321
rtibia 54.3437
rfoot -21.3151 -10.078
rtoes -19.9079
lfemur -26.6244 14.4543 -27.8522
ltibia 53.3303
lfoot -31.0103 14.2892
ltoes -6.79174
1628
root 1.26917 16.754 -1.09033 0.17431 -16.8827 4.09298
lowerback 16.8358 1.68384 -3.44576
upperback 12.2965 1.6245 -0.0184886
thorax 3.65324 0.539205 1.69632
lowerneck 9.65727 -3.08501 -5.42058
upperneck 2.34948 -4.63929 0.237392
head -0.750695 -2.34503 1.14287
rclavicle 1.39149e-014 -1.74931e-014
rhumerus 20.9503 14.2927 -82.7899
rradius 131.36
rwrist 21.0378
rhand 33.7697 -12.2753
rfingers 7.12502
rthumb 57.0604 -28.8109
lclavicle 1.39149e-014 -1.74931e-014
lhumerus 27.6245 -21.9622 81.3718
lradius 130.533
lwrist -15.5264
lhand 25.6641 44.342
lfingers 7.12502
lthumb 49.7702 65.6846
rfemur -32.333 0.860684 10.7109
rtibia 54.3444
rfoot -21.2845 -10.0187
rtoes -19.5997
lfemur -26.6314 14.5633 -27.9749
ltibia 53.2683
lfoot -30.982 14.3122
ltoes -6.87625
1629
root 1.27253 16.7553 -1.09218 0.17384 -16.9271 4.20422
lowerback 16.8622 1.69199 -3.55001
upperback 12.3226 1.62076 -0.0279123
thorax 3.66751 0.530203 1.74511
lowerneck 10.0037 -2.92869 -5.50683
upperneck 1.96375 -4.46739 0.356462
head -0.934895 -2.25441 1.20641
rclavicle 1.59028e-015 6.75868e-015
rhumerus 21.1184 14.4421 -82.8649
rradius 131.34
rwrist 21.0038
rhand 34.2332 -12.3961
rfingers 7.12502
rthumb 57.4672 -28.5861
lclavicle 1.59028e-015 6.75868e-015
lhumerus 27.6915 -21.8062 81.2711
lradius 130.524
lwrist -15.5207
lhand 25.617 44.1168
lfingers 7.12502
lthumb 49.7271 65.4817
rfemur -32.4104 0.933241 10.5705
rtibia 54.3644
rfoot -21.2089 -9.99159
rtoes -19.3494
lfemur -26.6373 14.6558 -28.1146
ltibia 53.1958
lfoot -30.9973 14.3058
ltoes -6.97961
